<svg width="120" height="120" viewBox="0 0 120 120" xmlns="http://www.w3.org/2000/svg">
  <rect x="20" y="20" width="80" height="80" rx="4" fill="#10B981" opacity="0.1"/>
  <rect x="34" y="65" width="12" height="25" rx="1" fill="#10B981"/>
  <rect x="54" y="50" width="12" height="40" rx="1" fill="#10B981"/>
  <rect x="74" y="35" width="12" height="55" rx="1" fill="#10B981"/>
  <path d="M30 38C30 36.8954 30.8954 36 32 36H88C89.1046 36 90 36.8954 90 38V42C90 43.1046 89.1046 44 88 44H32C30.8954 44 30 43.1046 30 42V38Z" fill="#10B981"/>
  <circle cx="40" cy="40" r="2" fill="white"/>
  <circle cx="48" cy="40" r="2" fill="white"/>
  <circle cx="56" cy="40" r="2" fill="white"/>
  <path d="M30 95H90" stroke="#10B981" stroke-width="2" stroke-linecap="round"/>
  <path d="M40 30L40 95" stroke="#10B981" stroke-opacity="0.3" stroke-width="1" stroke-dasharray="3 3"/>
  <path d="M60 30L60 95" stroke="#10B981" stroke-opacity="0.3" stroke-width="1" stroke-dasharray="3 3"/>
  <path d="M80 30L80 95" stroke="#10B981" stroke-opacity="0.3" stroke-width="1" stroke-dasharray="3 3"/>
  <path d="M34 58L46 48" stroke="#10B981" stroke-width="2"/>
  <path d="M46 48L58 53" stroke="#10B981" stroke-width="2"/>
  <path d="M58 53L74 35" stroke="#10B981" stroke-width="2"/>
  <circle cx="40" cy="53" r="3" fill="#10B981"/>
  <circle cx="52" cy="50.5" r="3" fill="#10B981"/>
  <circle cx="66" cy="44" r="3" fill="#10B981"/>
  <circle cx="80" cy="35" r="3" fill="#10B981"/>
</svg> 