<svg width="128" height="128" viewBox="0 0 128 128" xmlns="http://www.w3.org/2000/svg">
  <path fill-rule="evenodd" clip-rule="evenodd" fill="#2396ED" d="M124.8 52.1c-4.3-2.5-10-2.8-14.8-1.4-.6-5.2-4-9.7-8-12.9l-1.6-1.3-1.4 1.6c-2.7 3.1-3.5 8.3-3.1 12.3.3 2.9 1.2 5.9 3 8.3-1.4.8-2.9 1.9-4.3 2.4-2.8 1-5.9 2-8.9 2H52.1c-.6 0-1.8.2-2 .5-.4.5.1 1.9.3 2.7.8 3.2 2.9 5.8 5.8 7.2 3 1.5 6.5 1.7 9.9 1 4.3-.9 7.7-4.8 10.4-8.1 1.7.5 3.6.7 5.4.7 5.9 0 11.4-2.2 15.1-6.2 2 2.3 4.6 3.4 7.3 3.4 1.5 0 3.1-.3 4.6-.9C119.8 60.3 128 51.6 128 49.9l.1-1.8h-3.3z"/>
  <path fill-rule="evenodd" clip-rule="evenodd" fill="#2396ED" d="M73.8 50.5h11.3v11.5H73.8V50.5zm0-14.3h11.3v11.5H73.8V36.2zM61 50.5h11.3v11.5H61V50.5zm0-14.3h11.3v11.5H61V36.2zM48.3 50.5h11.3v11.5H48.3V50.5zm0-14.3h11.3v11.5H48.3V36.2zM35.5 50.5h11.3v11.5H35.5V50.5zm0-14.3h11.3v11.5H35.5V36.2zM22.7 50.5H34v11.5H22.7V50.5zM10 50.5h11.3v11.5H10V50.5zM10 36.2h11.3v11.5H10V36.2zM22.7 36.2H34v11.5H22.7V36.2zM35.5 21.9h11.3v11.5H35.5V21.9zM48.3 21.9h11.3v11.5H48.3V21.9zM67.5 82.1c0 2.2-1.8 4-4 4s-4-1.8-4-4 1.8-4 4-4 4 1.8 4 4"/>
</svg> 