<svg width="128" height="128" viewBox="0 0 128 128" xmlns="http://www.w3.org/2000/svg">
  <path fill="#EA4335" d="M80.6 40.3h.4l14.2-14.2.4-.8C87.3 17.3 76.8 12.2 65 12.2c-21.4 0-39.7 16.1-41.9 37.5l1.1-.3L42 36.5l1.1-.5c5.3-11 16.5-18.4 29.3-18.4 8.6 0 16.5 3.4 22.2 8.8l-14 13.9z"/>
  <path fill="#4285F4" d="M109.1 45.5c-2.4-7.4-7.1-14.1-13.4-19l-15 15c6.1 5 9.9 12.6 9.9 21.1 0 8-3.5 15.2-9.1 20.1v.2l14.5 14.5.7.1c11.1-10.6 18.1-25.4 18.1-42.2 0-3.3-.4-6.5-1-9.6l-4.7-.2z"/>
  <path fill="#34A853" d="M50.8 76.9v-.4c-2.9-5.4-4.3-10.3-4.3-15.3 0-5.1 1.4-9.9 4.3-15.3l-.3-.3-22.9-11.2-1 .3A47.77 47.77 0 0116.9 61c0 8.2 2.2 15.9 5.9 22.5l23.3-11.9c0 1.4 1.4 3.4 4.7 5.3"/>
  <path fill="#FBBC05" d="M65 99.8c15.3 0 28.2-5 35.6-13.7l-15.2-14.8c-5.6 5-12.6 7.8-20.4 7.8-12.8 0-24-7.6-29.3-18.5L35 60l-.3.3-22.8 11.7-.1.4C21.2 93.9 41.5 99.8 65 99.8"/>
</svg> 