<svg width="120" height="120" viewBox="0 0 120 120" xmlns="http://www.w3.org/2000/svg">
  <path d="M60 105L81.4939 45.4111H38.5061L60 105Z" fill="#E24329"/>
  <path d="M60 105L38.5061 45.4111H15L60 105Z" fill="#FC6D26"/>
  <path d="M15 45.4111L9.3325 62.5018C8.901 63.8438 9.3615 65.3158 10.52 66.1383L60 105L15 45.4111Z" fill="#FCA326"/>
  <path d="M15 45.4111H38.5061L28.1102 15.7461C27.5827 14.1461 25.2776 14.1461 24.7501 15.7461L15 45.4111Z" fill="#E24329"/>
  <path d="M60 105L81.4939 45.4111H105L60 105Z" fill="#FC6D26"/>
  <path d="M105 45.4111L110.668 62.5018C111.099 63.8438 110.639 65.3158 109.48 66.1383L60 105L105 45.4111Z" fill="#FCA326"/>
  <path d="M105 45.4111H81.4939L91.8898 15.7461C92.4173 14.1461 94.7224 14.1461 95.2499 15.7461L105 45.4111Z" fill="#E24329"/>
</svg> 