<svg width="128" height="128" viewBox="0 0 128 128" xmlns="http://www.w3.org/2000/svg">
  <path fill="#326CE5" d="M63.724 25.198c-1.602.041-3.198.42-4.687 1.115-.591.277-1.093.739-1.703 1.163L30.682 46.594c-1.295.78-2.379 1.891-3.13 3.223-.381.666-.719 1.368-.973 2.105l-10.674 31.353c-.429 1.36-.606 2.799-.521 4.214.085 1.388.421 2.735.976 4.01.268.637.595 1.235.96 1.817l18.906 26.712c.961 1.314 2.162 2.4 3.554 3.175.737.411 1.504.761 2.296 1.045l33.046 9.3c1.307.388 2.678.525 4.012.408 1.332-.112 2.63-.475 3.878-.973.612-.243 1.2-.52 1.775-.84l26.518-15.458c1.31-.775 2.443-1.821 3.344-3.056.458-.627.865-1.298 1.205-2.006l10.674-31.355c.425-1.384.598-2.846.511-4.286-.086-1.407-.432-2.778-1.014-4.068-.264-.59-.571-1.147-.919-1.69L99.2 34.485c-.972-1.336-2.2-2.43-3.62-3.192-.675-.36-1.376-.66-2.104-.894l-26.317-4.951c-1.14-.224-2.3-.288-3.435-.25zM63.93 33.37l26.318 4.953c.304.057.6.148.887.267.521.217 1.01.512 1.451.88l18.906 26.712c.152.21.286.435.402.67.235.475.42.978.55 1.5l-6.414-2.826-12.646-15.16a2.64 2.64 0 00-.193-.219c-1.164-1.152-2.5-2.094-3.842-2.847-1.371-.772-2.773-1.363-4.149-1.823-.6-.2-1.193-.373-1.78-.52-1.164-.293-2.304-.492-3.38-.62a91.788 91.788 0 00-2.04-.2 126.319 126.319 0 00-3.95-.229c-.631-.024-1.246-.036-1.848-.042-1.205-.012-2.323.01-3.292.056-.483.023-.945.051-1.375.08-.43.03-.83.062-1.191.094-.723.064-1.31.134-1.777.188-.933.109-1.437.185-1.437.185.017-.004.037-.05.05-.059.172-.235.373-.444.575-.657.41-.431.853-.84 1.328-1.22.479-.382.99-.74 1.538-1.06.283-.166.577-.323.884-.47 1.236-.595 2.664-1.022 4.242-1.211.25-.03.51-.05.772-.065a14.807 14.807 0 01-.757-.167 33.075 33.075 0 00-3.639-.578c-1.153-.126-2.33-.187-3.53-.21-.3-.006-.602-.007-.906-.005-1.203.007-2.433.087-3.685.24a40.332 40.332 0 00-1.335.191c-2.8.442-5.67 1.317-8.599 2.6-1.48.655-1.485.662-2.92 1.37a104.993 104.993 0 00-8.287 4.385c-.16.09-.311.186-.467.276.063-.045.127-.087.188-.136.079-.063.153-.132.225-.205l26.652-19.118c.254-.169.516-.308.787-.424.619-.266 1.273-.43 1.943-.486.232-.02.465-.025.696-.015zm3.93 10.358c4.713.012 8.773.414 10.891 1.222 4.488 1.717 7.193 4.678 7.193 7.866 0 .332-.041.665-.11.998 5.238 1.392 8.71 3.756 8.71 6.29 0 3.922-6.267 7.22-15.018 8.898-.11.021-.218.043-.329.063 1.407 1.188 2.562 2.434 3.268 3.775 1.31 2.49 1.07 4.947-.687 7.031-.014.016-.025.034-.039.05 2.463 1.01 3.426 2.922 2.291 5.264-.98 2.025-3.175 3.353-5.969 3.353-.626 0-1.236-.07-1.819-.18-.117-.022-.234-.05-.352-.078-1.373 3.82-3.877 6.195-6.634 6.195-2.749 0-5.278-2.37-6.646-6.188h-.047c-2.826.57-5.766-.83-6.884-3.35-.93-2.092-.215-4.267 1.864-5.604-2.265-2.414-2.54-5.343-.626-8.21.743-1.114 1.787-2.144 3.036-3.125-10.303-1.624-17.593-5.357-17.593-9.842 0-2.788 3.892-5.308 9.814-6.7a5.142 5.142 0 00-.15-1.077c0-3.18 2.703-6.138 7.187-7.855 2.175-.831 6.293-1.24 11.248-1.226zm-2.165 8.598c-6.61 0-12.18 1.467-14.937 3, 2.757 1.532 8.326 3 14.937 3 6.61 0 12.18-1.467 14.937-3-2.757-1.533-8.327-3-14.937-3zm-18.686 6.328c-2.66.847-4.358 1.93-4.877 3.172l-.175.427c3.113-1.109 7.273-2.219 15.37-2.172 9.811.057 15.137 1.44 18.724 2.946l-.31-.737c-.529-1.242-2.229-2.324-4.89-3.17-1.39 1.11-6.089 2.279-12.807 2.264-6.719-.014-11.42-1.205-12.797-2.328-.082-.016-.16-.028-.238-.042v-.36zm.316 6.969a85.169 85.169 0 00-4.318 1.313c-1.416.475-2.625.963-3.643 1.438l-.204.096c-.051.025-.093.05-.144.076l-.283.147c-.188.1-.371.2-.541.302-.17.102-.333.207-.486.31-.153.105-.3.209-.436.314-.137.105-.268.212-.387.317l-.336.3c-.103.096-.2.195-.29.292-.09.097-.173.192-.25.289-.078.097-.15.2-.215.298a2.446 2.446 0 00-.18.297c-.053.099-.1.202-.14.304-.04.101-.075.203-.103.306-.28.102-.051.207-.067.312-.016.105-.027.212-.03.32l-.005.333c.004.103.015.207.03.313.016.106.037.21.066.312.028.103.06.203.1.304.04.102.087.205.141.305.053.1.113.2.181.297.068.097.143.19.222.288.078.097.164.193.255.289.09.097.189.196.295.292.105.097.217.189.333.281.116.093.24.187.37.278.131.09.271.18.414.268.143.088.296.175.455.263.16.087.328.172.503.257.175.085.358.17.55.257.19.087.389.174.6.262.21.088.429.174.66.261.23.088.472.175.723.263.252.087.513.176.786.264.272.088.556.174.853.261.296.088.605.176.928.264.323.088.661.175 1.014.262.353.088.721.176 1.106.264.384.088.785.174 1.203.26.418.087.855.174 1.309.262l.67.131 1.379.255c.471.087.953.173 1.45.26.497.086 1.006.173 1.533.26.528.087 1.076.174 1.637.261.562.087 1.14.171 1.732.255.593.084 1.2.17 1.825.255.624.085 1.263.171 1.918.255.656.084 1.329.168 2.016.25.687.083 1.387.166 2.102.248.716.081 1.447.163 2.19.242l1.117.117c.764.08 1.533.16 2.312.237 1.56.155 3.138.304 4.72.441l.594.051a232.553 232.553 0 008.8.614c.716.043 1.431.08 2.137.117l.351.017c.75.039 1.49.075 2.216.106l.43.017-.013-.035a.648.648 0 00-.053-.12 1.67 1.67 0 00-.201-.283 3.158 3.158 0 00-.382-.383 5.282 5.282 0 00-.598-.449 8.818 8.818 0 00-.847-.479c-.151-.076-.307-.152-.469-.227l-.247-.113-.257-.113-.269-.114-.278-.113-.287-.113-.297-.113-.308-.113-.317-.114-.327-.112-.337-.112-.348-.112-.357-.11-.367-.11-.376-.1-.386-.11-.395-.1-.404-.1-.82-.198-.838-.197-.852-.194-.865-.19-.876-.186-.883-.182-.89-.18-.896-.174-.9-.172-.903-.17-.905-.166-.904-.164-.9-.16-.898-.157-.891-.154-.884-.15-.874-.147-.865-.143-.852-.14-.842-.138-.827-.134-.812-.13-.794-.129-.778-.125-.76-.121-.739-.12-.72-.116-.698-.114-.676-.11-.652-.107-.626-.105-.602-.103-.574-.099-.55-.097-.519-.095-.495-.093-.466-.09-.44-.089-.412-.086-.384-.083-.357-.082-.328-.079-.3-.077-.272-.075-.245-.073-.216-.071-.19-.07-.16-.068-.135-.066-.106-.065-.08-.063-.055-.062-.028-.06c-.076-.01-.147-.017-.218-.026zm20.534 12.725c1.347.01 2.515.164 3.482.463 3.277 1.01 4.075 3.257 1.808 5.088-2.266 1.832-6.768 2.503-10.045 1.493-3.277-1.01-4.075-3.257-1.808-5.088 1.557-1.259 3.96-1.967 6.562-1.956zm-25.96 3.173c1.68.012 3.304.36 4.523 1.01 2.43 1.296 2.53 3.227.229 4.337-2.301 1.11-6.199.96-8.629-.336-2.43-1.296-2.53-3.227-.229-4.337 1.15-.555 2.585-.685 4.107-.674zm38.143 6.868c1.347.01 2.515.163 3.482.462 3.277 1.01 4.075 3.257 1.808 5.088-2.266 1.832-6.768 2.504-10.045 1.493-3.277-1.01-4.075-3.257-1.808-5.088 1.557-1.259 3.96-1.967 6.562-1.955zm-50.327 3.173c1.681.012 3.304.359 4.523 1.01 2.43 1.295 2.53 3.226.229 4.336-2.301 1.11-6.198.96-8.628-.335-2.43-1.297-2.53-3.227-.229-4.337 1.15-.555 2.585-.686 4.106-.674zm38.184 6.868c1.347.01 2.515.163 3.482.462 3.277 1.01 4.075 3.257 1.808 5.088-2.266 1.832-6.768 2.504-10.045 1.493-3.277-1.01-4.075-3.257-1.808-5.088 1.557-1.259 3.96-1.967 6.562-1.955zM35.64 99.603c1.681.012 3.304.359 4.523 1.01 2.43 1.295 2.53 3.226.229 4.336-2.301 1.11-6.198.96-8.628-.336-2.43-1.296-2.53-3.226-.229-4.336 1.15-.555 2.585-.685 4.106-.674z"/>
</svg> 