<svg width="120" height="120" viewBox="0 0 120 120" xmlns="http://www.w3.org/2000/svg">
  <rect x="20" y="20" width="80" height="80" rx="4" fill="#6366F1" opacity="0.1"/>
  <path d="M70 30H85C86.1046 30 87 30.8954 87 32V47C87 48.1046 86.1046 49 85 49H70C68.8954 49 68 48.1046 68 47V32C68 30.8954 68.8954 30 70 30Z" fill="#6366F1"/>
  <path d="M35 30H50C51.1046 30 52 30.8954 52 32V47C52 48.1046 51.1046 49 50 49H35C33.8954 49 33 48.1046 33 47V32C33 30.8954 33.8954 30 35 30Z" fill="#6366F1"/>
  <path d="M35 71H50C51.1046 71 52 71.8954 52 73V88C52 89.1046 51.1046 90 50 90H35C33.8954 90 33 89.1046 33 88V73C33 71.8954 33.8954 71 35 71Z" fill="#6366F1"/>
  <path d="M70 71H85C86.1046 71 87 71.8954 87 73V88C87 89.1046 86.1046 90 85 90H70C68.8954 90 68 89.1046 68 88V73C68 71.8954 68.8954 71 70 71Z" fill="#6366F1"/>
  <line x1="60" y1="49" x2="60" y2="71" stroke="#6366F1" stroke-width="2"/>
  <line x1="52" y1="40" x2="68" y2="40" stroke="#6366F1" stroke-width="2"/>
  <line x1="52" y1="80" x2="68" y2="80" stroke="#6366F1" stroke-width="2"/>
  <circle cx="60" cy="40" r="3" fill="#6366F1"/>
  <circle cx="60" cy="80" r="3" fill="#6366F1"/>
  <circle cx="42" cy="60" r="8" stroke="#6366F1" stroke-width="2" fill="none"/>
  <circle cx="78" cy="60" r="8" stroke="#6366F1" stroke-width="2" fill="none"/>
  <path d="M42 56L42 64M38 60L46 60" stroke="#6366F1" stroke-width="2"/>
  <path d="M74 60L82 60" stroke="#6366F1" stroke-width="2"/>
</svg> 